<?xml version="1.0" encoding="UTF-8" standalone="no"?> <svg xmlns:dc="http://purl.org/dc/elements/1.1/" xmlns:cc="http://creativecommons.org/ns#" xmlns:rdf="http://www.w3.org/1999/02/22-rdf-syntax-ns#" xmlns:svg="http://www.w3.org/2000/svg" xmlns="http://www.w3.org/2000/svg" xmlns:sodipodi="http://sodipodi.sourceforge.net/DTD/sodipodi-0.dtd" xmlns:inkscape="http://www.inkscape.org/namespaces/inkscape" width="300" height="118" viewBox="0 0 240 94.4" version="1.1" id="svg2" inkscape:version="0.47 r22583" sodipodi:docname="Biocon Logo.svg"><metadata id="metadata51"></metadata><defs id="defs49"></defs><g id="#ffffffff" transform="translate(0,-590.6)"></g><g id="g2859" transform="matrix(0.1376541,0,0,0.1376541,0.0728136,-0.28100048)"><g id="#00407cff"><path style="fill:#00407c" id="path6" d="m 308.45,10.65 c 9.25,-1.15 19.05,-0.9 27.59,3.26 16.1,7.08 27.31,23.66 28.39,41.15 0.5,4.34 -0.55,8.62 -0.72,12.94 -0.07,11.02 0.83,22.25 4.8,32.62 5.9,15.8 16.14,30.15 29.78,40.16 7.74,5.39 16.32,9.54 25.25,12.54 15.74,5.57 27.83,20.03 30.76,36.45 2.32,11.26 0.37,23.29 -5.49,33.18 -9.57,16.61 -29.77,26.43 -48.73,23.12 -16.66,-1.04 -33.89,1.45 -48.72,9.45 -15.25,8.03 -28.68,20.9 -34.42,37.46 -2.98,7.62 -2.6,15.94 -2.56,23.96 -0.14,12.93 5.94,24.96 13.08,35.38 0.05,0.07 0.15,0.2 0.2,0.27 9.52,13.23 22.99,23.35 37.88,29.83 5.7,2.27 11.7,3.89 17.04,6.99 14.67,8.6 24.35,25.46 23.47,42.56 0.46,24.51 -21.52,46.9 -46.08,46.7 -12.63,-0.64 -25.45,-0.41 -37.83,2.43 -16.98,4.2 -31.8,14.85 -42.94,28.13 -6.6,8.06 -11.82,17.33 -14.73,27.36 -4.71,15.42 -17.66,28.17 -33.37,32.08 -8.07,1.76 -16.64,1.83 -24.65,-0.33 -14.82,-4.07 -27.56,-15.53 -32.54,-30.16 -4.17,-12.42 -3.28,-26.67 3.11,-38.2 8.34,-15.38 25.27,-26.07 42.96,-25.47 17.28,1.8 35.47,0.53 51.34,-7.08 0.06,-0.03 0.19,-0.09 0.25,-0.12 l 1.68,-0.83 c 0.07,-0.03 0.19,-0.09 0.26,-0.13 12.91,-6.91 25.04,-16.54 31.85,-29.78 0.04,-0.05 0.1,-0.17 0.13,-0.23 10.36,-20.02 7.06,-45.16 -5.09,-63.65 -0.03,-0.06 -0.1,-0.16 -0.13,-0.21 -9.58,-14.52 -23.27,-26.28 -39,-33.71 -5.62,-2.38 -11.63,-3.9 -16.92,-7.03 -12.35,-6.78 -21.44,-19.31 -23.66,-33.26 -1.82,-11.67 0.26,-24.15 6.9,-34.05 9.96,-15.98 29.92,-24.76 48.45,-21.58 13.69,0.12 27.81,-0.87 40.59,-6.22 15.66,-6.18 30.05,-16.94 38.2,-31.92 8.78,-16 8.92,-35.9 2.03,-52.61 -10.04,-24.28 -32.5,-42.13 -57.28,-49.71 -15.02,-5.66 -26.47,-19.56 -29.48,-35.27 -1.98,-9.62 -0.94,-19.9 3.18,-28.83 6.32,-14.15 19.85,-25.01 35.17,-27.64 z"></path><path style="fill:#00407c" id="path8" d="m 203.97,137.99 c 7.02,-10.62 18.34,-18.47 30.94,-20.68 15.63,-2.7 32.39,2.96 43.3,14.47 7.91,8.34 13,19.66 12.81,31.26 1.45,23.17 -17.07,45.34 -39.9,48.73 -9.35,1.1 -18.73,-0.62 -28.09,0.07 -6.07,0.08 -12.03,1.41 -17.99,2.34 -0.5,0.17 -1.5,0.52 -2,0.7 -16.06,5.43 -31.25,14.8 -41.41,28.59 -10.4,14.35 -13.67,33.5 -8.67,50.49 5.43,18.52 18.21,34.2 33.58,45.54 7.15,4.96 14.87,9.28 23.25,11.75 16.1,5.4 29.15,19.74 32.05,36.6 0.81,8.34 0.97,17.09 -2.1,25.04 -5.06,13.61 -16.37,24.93 -30.29,29.32 -7.81,2.65 -16.23,2.85 -24.36,1.92 -9.04,-0.95 -18.05,0.78 -26.94,2.1 -0.52,0.16 -1.54,0.47 -2.05,0.62 -1.78,0.63 -3.61,1.08 -5.4,1.64 -0.08,0.03 -0.22,0.07 -0.29,0.1 -0.69,0.24 -2.07,0.72 -2.76,0.96 -0.06,0.02 -0.18,0.06 -0.24,0.09 -3.68,1.37 -7.27,2.99 -10.73,4.86 -0.06,0.03 -0.19,0.1 -0.25,0.13 -15.85,8.4 -28.75,22.88 -33.67,40.29 -3.67,12.44 -2.38,25.98 2.34,37.97 8.27,21.21 25.71,38.28 46.42,47.42 0.06,0.03 0.17,0.07 0.22,0.09 5.77,2.15 11.77,3.84 17.18,6.85 13.67,7.55 23.25,22.2 24.31,37.83 1.06,12.52 -2.95,25.42 -11.09,35.01 -9.08,10.68 -22.97,17.28 -37.04,17.01 -13.08,0.16 -25.76,-6.13 -34.4,-15.79 C 101.78,651.6 97.21,638.11 98.41,624.98 99.99,612.41 98.23,599.59 94.6,587.52 88.44,570.75 77.71,555.35 62.82,545.22 55.73,540.49 48.05,536.53 39.91,533.97 24.09,528.52 11.59,514.3 8.39,497.86 c -1.04,-6.88 -1.1,-13.94 0.07,-20.8 3.44,-15.3 15.15,-28.3 29.81,-33.73 9.1,-3.7 19.19,-3.35 28.76,-2.19 20.71,0.47 41.87,-5.91 58.1,-18.98 11.9,-9.43 20.35,-23.16 22.97,-38.15 2.61,-13.34 -0.86,-27.12 -6.91,-39.04 -10.57,-20.66 -30.01,-36.15 -51.96,-43.25 -17.32,-5.5 -30.48,-21.85 -32.5,-39.85 -0.84,-8.36 -0.07,-17.07 3.39,-24.8 5.9,-14.06 18.88,-24.93 33.82,-28.11 8.88,-2.17 18.02,-0.04 26.99,-0.25 29.88,-0.78 58.59,-19.03 71.95,-45.78 4.3,-8.04 5.9,-17.34 11.09,-24.94 z"></path></g><g id="#76aad9ff"><path id="path11" d="m 782.9,196.95 c 23.09,0.12 46.17,0 69.25,0.05 -3.14,17.05 -7.15,33.95 -10.33,51 -23.2,0 -46.4,0.01 -69.6,-0.01 3.06,-17.11 6.65,-34.14 10.68,-51.04 z" style="fill:#76aad9"></path><path id="path13" d="m 532.4,212.39 c 41.21,-0.09 82.43,-0.13 123.64,0.27 18.98,0.5 38.83,6.11 52.83,19.48 8.67,7.93 13.78,19.19 15.47,30.71 2.13,14.35 -0.02,29.53 -7.38,42.17 -9.8,17.54 -28.15,28.82 -47.25,33.71 -3.91,1.24 -8.14,1.26 -11.89,2.98 14.38,2.5 28.95,8.57 38.46,20.05 7.54,8.87 10.7,20.72 10.76,32.18 -0.21,15.17 -4.06,30.58 -12.78,43.18 -10,15.14 -26.05,25.21 -42.82,31.39 -13.29,4.91 -27.38,7.2 -41.44,8.48 -22.68,0.18 -45.35,1.04 -68.03,1.01 -21.57,0.27 -43.15,1.02 -64.72,0.85 18.04,-88.89 36.7,-177.65 55.15,-266.46 m 60.05,51.03 c -3.43,18.09 -7.32,36.1 -11.14,54.11 16.85,-0.76 34.25,1.58 50.57,-3.78 9.04,-3.02 18.06,-9.23 20.83,-18.81 2.51,-7.33 1.29,-15.96 -3.59,-22.05 -4.93,-5.57 -12.52,-7.49 -19.59,-8.54 -12.31,-1.41 -24.72,-0.86 -37.08,-0.93 M 571.18,366 c -3.65,17.34 -7.2,34.71 -10.88,52.04 -0.76,3.26 -1.62,6.53 -1.56,9.91 9.4,-0.06 18.84,0.49 28.19,-0.62 10.74,-0.53 21.68,-2.25 31.38,-7.12 7.98,-4.03 14.76,-11.26 16.59,-20.19 0.46,-7.99 1.7,-17.32 -4.1,-23.81 -7.23,-8.25 -19.13,-8.87 -29.32,-9.45 -10.06,-1.22 -20.2,-0.62 -30.3,-0.76 z" style="fill:#76aad9"></path><path id="path15" d="m 203.04,214.88 c 0.5,-0.18 1.5,-0.53 2,-0.7 l -0.17,0.87 -1.03,0.37 -0.8,-0.54 z" style="fill:#76aad9"></path><path id="path17" d="m 956.48,275.67 c 11.76,-1.46 23.67,-0.6 35.41,0.75 17.67,2.42 35.22,8.33 49.47,19.29 12.38,9.3 21.95,22.27 27.09,36.88 5.02,14.51 6.2,30.18 4.62,45.39 -1.54,23.82 -9.17,47.89 -24.78,66.31 -16.41,19.52 -40.56,31.02 -65.28,35.74 -14.14,2.62 -28.57,3.9 -42.93,3.21 -17.53,-0.36 -35.3,-3.46 -51.14,-11.21 -12.98,-6.2 -24.39,-15.86 -32.13,-28.03 -6.55,-10.28 -10.55,-22.04 -12.42,-34.05 -1.03,-9.31 -2.15,-18.72 -0.85,-28.06 1.29,-17.56 6.04,-35.04 14.94,-50.3 9.46,-16.32 23.44,-29.94 39.87,-39.18 17.73,-10 37.88,-15.39 58.13,-16.74 m 4.72,48.65 c -11.81,1.79 -22.61,8.56 -29.91,17.93 -8.61,10.53 -13.76,23.58 -15.97,36.92 -1.44,12.12 -1.3,25.03 4.22,36.2 4.08,8.62 11.78,15.64 21.14,17.98 12.65,3.18 26.78,0.52 37.35,-7.18 9.5,-6.7 15.63,-17.2 19.27,-28.06 4.36,-13.57 5.85,-28.03 4.63,-42.22 -1.1,-9.21 -4.7,-18.61 -12.02,-24.66 -7.85,-6.66 -18.78,-8.23 -28.71,-6.91 z" style="fill:#76aad9"></path><path id="path19" d="m 1195.98,276.02 c 27.24,-3.59 54.74,2.73 80.18,12.25 -4.4,16.07 -10.01,31.82 -14.41,47.9 -4.09,-0.34 -7.7,-2.51 -11.57,-3.68 -9.31,-3.63 -19.18,-5.62 -29.11,-6.46 -14.99,-0.62 -30.67,3.02 -42.55,12.53 -15.81,12.59 -21.81,33.84 -21.1,53.36 0.48,9.99 4.5,19.92 11.74,26.93 8.65,9.14 21.48,13.46 33.88,13.44 15.26,0.54 30.41,-2.79 44.47,-8.6 -2.03,17.58 -6.22,34.84 -9.47,52.22 -19.35,6.23 -39.86,7.58 -60.05,7.44 -20.5,-0.13 -41.38,-5.85 -57.72,-18.57 -17.97,-13.48 -29.76,-34.44 -32.98,-56.58 -3.79,-26.15 1.55,-53.74 15.54,-76.24 8.59,-14.04 20.32,-26.06 34.06,-35.12 17.56,-11.73 38.17,-18.5 59.09,-20.82 z" style="fill:#76aad9"></path><path id="path21" d="m 1379.41,275.6 c 20.42,-1.83 41.46,0.09 60.83,7.11 16.25,6 31.16,16.43 41.06,30.8 6.65,9.42 11.13,20.3 13.39,31.59 2.31,11.16 1.11,22.62 1.31,33.93 -1.55,17.74 -6.06,35.47 -14.95,51.01 -9.32,16.48 -23.83,29.81 -40.7,38.31 -16.18,8.34 -34.19,12.51 -52.21,14.23 -22.73,1.72 -46.24,1.13 -67.86,-6.86 -15.88,-5.73 -30.21,-16.14 -39.68,-30.22 -10.53,-15.64 -14.85,-34.83 -14.52,-53.51 -0.14,-18.57 3.58,-37.3 11.85,-53.99 8.57,-17.71 22.43,-32.7 39.08,-43.1 18.73,-11.61 40.51,-17.76 62.4,-19.3 m 4.77,48.61 c -16.11,2.3 -29.44,13.99 -37,27.97 -9.12,17.23 -13.38,38.01 -7.41,56.98 3.12,10.5 10.83,20.04 21.39,23.66 18.1,5.79 39.55,-1.59 50.26,-17.31 10.62,-15.18 13.99,-34.29 13.62,-52.49 0.38,-11.81 -3.37,-24.7 -12.93,-32.28 -7.83,-6.12 -18.29,-7.52 -27.93,-6.53 z" style="fill:#76aad9"></path><path id="path23" d="m 1633.88,282.83 c 10.37,-4.87 21.8,-6.89 33.15,-7.81 11.83,-0.42 24.09,0.73 34.82,6.11 11.99,5.74 21.34,16.22 26.65,28.31 4.74,10.84 7.03,22.77 6.5,34.59 0.36,9.36 -0.55,18.71 -2.37,27.88 -6.93,35.66 -13.98,71.28 -20.89,106.94 -23.72,0.13 -47.44,0.09 -71.16,0.15 1.12,-8.8 3.47,-17.4 5.09,-26.12 5.55,-26.98 11.21,-53.95 16.5,-80.99 1.3,-8.73 3.72,-18.24 -0.42,-26.6 -2.78,-6.52 -9.34,-10.67 -16.17,-11.74 -10.8,-1.76 -22.39,0.38 -31.41,6.7 -13.33,8.82 -20.84,23.97 -24.85,39 -7.24,33.23 -13.77,66.62 -21.24,99.79 -22.99,-0.35 -46,0.17 -68.99,-0.19 10.16,-46.21 19.37,-92.61 29.09,-138.91 4.05,-20.11 8.45,-40.24 10.02,-60.73 21.35,-0.14 42.71,-0.01 64.08,-0.07 -1.15,11.04 -3.46,21.94 -5.16,32.91 10.19,-11.97 22.47,-22.49 36.76,-29.22 z" style="fill:#76aad9"></path><path id="path25" d="m 765.33,279.22 c 23.23,-0.06 46.45,-0.11 69.68,0 -9.86,49.01 -20.21,97.92 -30.19,146.9 -3.75,17.6 -7.06,35.29 -11.06,52.83 -23.2,0.01 -46.41,0.1 -69.61,-0.15 13.79,-66.51 27.28,-133.09 41.18,-199.58 z" style="fill:#76aad9"></path><path id="path27" d="m 327.46,352.32 c 0.05,0.07 0.15,0.2 0.2,0.27 -0.05,-0.07 -0.15,-0.2 -0.2,-0.27 z" style="fill:#76aad9"></path><path id="path29" d="m 300.27,372.48 c 0.03,0.05 0.1,0.15 0.13,0.21 -0.03,-0.06 -0.1,-0.16 -0.13,-0.21 z" style="fill:#76aad9"></path><path id="path31" d="m 305.36,436.57 c 0.04,-0.05 0.1,-0.17 0.13,-0.23 -0.03,0.06 -0.09,0.18 -0.13,0.23 z" style="fill:#76aad9"></path><path id="path33" d="m 156.1,446.85 c 0.51,-0.15 1.53,-0.46 2.05,-0.62 l -0.22,0.87 -1.06,0.32 -0.77,-0.57 z" style="fill:#76aad9"></path><path id="path35" d="m 150.41,448.59 c 0.07,-0.03 0.21,-0.07 0.29,-0.1 -0.08,0.03 -0.22,0.07 -0.29,0.1 z" style="fill:#76aad9"></path><path id="path37" d="m 147.41,449.64 c 0.06,-0.03 0.18,-0.07 0.24,-0.09 -0.06,0.02 -0.18,0.06 -0.24,0.09 z" style="fill:#76aad9"></path><path id="path39" d="m 136.43,454.63 c 0.06,-0.03 0.19,-0.1 0.25,-0.13 -0.06,0.03 -0.19,0.1 -0.25,0.13 z" style="fill:#76aad9"></path><path id="path41" d="m 273.25,466.48 c 0.07,-0.03 0.19,-0.09 0.26,-0.13 -0.07,0.04 -0.19,0.1 -0.26,0.13 z" style="fill:#76aad9"></path><path id="path43" d="m 271.32,467.43 c 0.06,-0.03 0.19,-0.09 0.25,-0.12 -0.06,0.03 -0.19,0.09 -0.25,0.12 z" style="fill:#76aad9"></path><path id="path45" d="m 151.52,580.31 c 0.06,0.03 0.17,0.07 0.22,0.09 -0.05,-0.02 -0.16,-0.06 -0.22,-0.09 z" style="fill:#76aad9"></path></g></g></svg> 